<svg viewBox="0 0 524 224" xmlns="http://www.w3.org/2000/svg" fill-rule="evenodd" clip-rule="evenodd" stroke-linejoin="round" stroke-miterlimit="2"><path d="M735.22 310.28l.05 47.63-84.07-.01.03-47.62h83.99zM298.04 447.91h57.52V310.28h-57.25l-.27 137.63zm353.15-54.8l.02-35.2-57.49.01V402l-67.15-67.47 67.26-66.78.07 42.53 57.36-.03.15-34.19 95.6.04-.03-52.1-188.37.16-83.69 83.76.01-83.81-250.93-.04.02 52.16h191.95l-.34 171.72 59.48-.05.02-83.47 84.5 83.4 187.32.17.05-55.06-95.81.17z" fill="url(#_Linear1)" fill-rule="nonzero" transform="translate(-224 -224)"/><defs><linearGradient id="_Linear1" x1="0" y1="0" x2="1" y2="0" gradientUnits="userSpaceOnUse" gradientTransform="rotate(-45 754.188 -162.518) scale(475.781)"><stop offset="0" stop-color="#7000bd"/><stop offset=".15" stop-color="#7000bd"/><stop offset=".18" stop-color="#7a09ae"/><stop offset=".28" stop-color="#9a2382"/><stop offset=".38" stop-color="#b5395d"/><stop offset=".49" stop-color="#cb4c3e"/><stop offset=".6" stop-color="#dc5a26"/><stop offset=".71" stop-color="#e96415"/><stop offset=".84" stop-color="#f06a0b"/><stop offset="1" stop-color="#f26c08"/></linearGradient></defs></svg>